<?xml version="1.0" encoding="iso-8859-1"?>
<!-- Uploaded to: SVG Repo, www.svgrepo.com, Generator: SVG Repo Mixer Tools -->
<svg fill="#000000" height="800px" width="800px" version="1.1" id="Layer_1" xmlns="http://www.w3.org/2000/svg" xmlns:xlink="http://www.w3.org/1999/xlink" 
	 viewBox="0 0 512 512" xml:space="preserve">
<g>
	<g>
		<g>
			<path d="M344.008,201.677c2.953,0,5.82-1.527,7.398-4.267c2.355-4.087,0.956-9.301-3.123-11.657l-44.348-25.6
				c-4.105-2.364-9.31-0.956-11.657,3.123c-2.355,4.079-0.956,9.301,3.123,11.657l44.348,25.6
				C341.098,201.31,342.566,201.677,344.008,201.677z"/>
			<path d="M281.604,426.667c-4.719,0-8.533,3.823-8.533,8.533v25.6h-34.133v-25.6c0-4.71-3.823-8.533-8.533-8.533
				c-4.719,0-8.533,3.823-8.533,8.533v68.267c0,4.71,3.814,8.533,8.533,8.533c4.71,0,8.533-3.823,8.533-8.533v-25.6h34.133v25.6
				c0,4.71,3.814,8.533,8.533,8.533c4.71,0,8.533-3.823,8.533-8.533V435.2C290.137,430.49,286.314,426.667,281.604,426.667z"/>
			<path d="M508.368,436.753l-51.072-35.883c2.27-5.265,3.507-10.965,3.507-16.862c0-11.392-4.429-22.11-12.476-30.165
				c-6.007-6.016-13.5-10.01-21.658-11.648V238.071c8.141-1.638,15.633-5.623,21.641-11.631
				c8.064-8.064,12.493-18.782,12.493-30.165c0-11.392-4.429-22.11-12.476-30.165c-8.055-8.064-18.765-12.51-30.191-12.51
				c-12.169,0-23.1,5.188-30.874,13.389l-91.716-57.122c2.031-5.018,3.123-10.419,3.123-15.992c0-11.392-4.429-22.11-12.476-30.174
				c-6.007-6.008-13.491-9.993-21.649-11.639l-0.009-43.529c0-4.719-3.823-8.533-8.533-8.533h-0.009
				c-4.71,0-8.525,3.823-8.525,8.533l0.009,43.529c-19.448,3.959-34.133,21.197-34.142,41.805c0,5.658,1.161,11.025,3.166,15.974
				l-91.733,57.122c-0.265-0.273-0.444-0.589-0.708-0.862c-8.055-8.055-18.765-12.501-30.191-12.501
				c-11.392,0-21.709,4.557-29.372,11.861l-51.055-35.908c-3.857-2.705-9.182-1.784-11.887,2.074
				c-2.714,3.849-1.783,9.173,2.065,11.887l51.072,35.917c-2.236,5.171-3.49,10.854-3.49,16.836
				c0.009,20.599,14.686,37.828,34.133,41.796l0.009,104.132C65.898,346.155,51.212,363.392,51.204,384
				c0.009,23.526,19.157,42.667,42.684,42.667c11.383,0,22.101-4.446,30.157-12.501c0.171-0.171,0.282-0.375,0.452-0.546
				l67.183,42.778c1.425,0.904,3.012,1.34,4.582,1.34c2.816,0,5.572-1.399,7.202-3.951c2.534-3.977,1.357-9.25-2.611-11.785
				l-67.2-42.786c1.835-4.804,2.884-9.916,2.884-15.206c0-11.392-4.429-22.11-12.476-30.174
				c-6.008-6.008-13.491-10.001-21.649-11.639c-0.008-21.453-0.008-82.526-0.008-104.124c8.141-1.638,15.633-5.632,21.641-11.639
				c8.064-8.064,12.493-18.773,12.493-30.157c0-5.154-1.024-10.129-2.765-14.814l92.151-57.387
				c7.723,7.689,18.355,12.459,30.089,12.459c11.366,0,22.05-4.429,30.097-12.442l92.16,57.404
				c-1.724,4.625-2.799,9.566-2.799,14.78c0.009,20.591,14.686,37.828,34.133,41.788v104.141
				c-19.448,3.959-34.125,21.197-34.133,41.805c0,5.333,1.101,10.385,2.893,15.104l-67.2,42.615
				c-3.977,2.526-5.163,7.799-2.637,11.776c1.621,2.56,4.386,3.959,7.219,3.959c1.562,0,3.14-0.427,4.557-1.323l67.174-42.598
				c7.774,8.055,18.62,13.124,30.677,13.124c11.025,0,21.376-4.241,29.346-11.827l51.063,35.874c1.493,1.05,3.2,1.553,4.898,1.553
				c2.688,0,5.325-1.263,6.989-3.627C513.156,444.783,512.225,439.458,508.368,436.753z M111.986,365.892
				c4.83,4.838,7.484,11.273,7.484,18.116c0,4.898-1.417,9.557-3.977,13.602c-0.026,0.043-0.068,0.06-0.094,0.102
				c-0.06,0.085-0.06,0.188-0.111,0.282c-0.956,1.459-2.048,2.842-3.311,4.104c-4.838,4.83-11.264,7.501-18.091,7.501
				c-14.123,0-25.617-11.486-25.617-25.6s11.494-25.6,25.634-25.6C100.74,358.4,107.157,361.062,111.986,365.892z M111.978,214.366
				c-4.838,4.838-11.264,7.501-18.091,7.501c-14.123,0-25.617-11.486-25.617-25.6s11.494-25.6,25.634-25.6
				c6.835,0,13.252,2.662,18.082,7.492c1.323,1.34,2.449,2.807,3.439,4.361c0.051,0.077,0.051,0.171,0.102,0.256
				c0.034,0.051,0.077,0.094,0.119,0.145c2.441,3.985,3.823,8.55,3.823,13.355C119.47,203.11,116.808,209.527,111.978,214.366z
				 M274.111,111.966c-4.838,4.83-11.264,7.501-18.099,7.501c-14.114,0-25.609-11.486-25.609-25.6s11.494-25.6,25.634-25.6
				c6.835,0,13.252,2.662,18.082,7.492c4.83,4.838,7.484,11.273,7.484,18.116C281.604,100.71,278.941,107.127,274.111,111.966z
				 M392.537,196.275c0-4.949,1.476-9.532,3.917-13.457c0.009-0.008,0.017-0.017,0.026-0.034c0.009-0.017,0.009-0.034,0.026-0.051
				c4.54-7.219,12.518-12.066,21.666-12.066c6.835,0,13.252,2.662,18.082,7.501c4.83,4.838,7.484,11.264,7.484,18.108
				c0,6.835-2.662,13.261-7.492,18.099c-4.838,4.83-11.264,7.492-18.091,7.492C404.031,221.867,392.537,210.381,392.537,196.275z
				 M436.245,402.108c-4.838,4.83-11.264,7.492-18.091,7.492c-9.054,0-16.973-4.745-21.53-11.836
				c-0.026-0.034-0.017-0.077-0.043-0.102c-0.009-0.017-0.026-0.026-0.034-0.034c-2.509-3.959-4.011-8.61-4.011-13.619
				c0-14.114,11.494-25.609,25.634-25.609c6.835,0,13.252,2.662,18.082,7.501c4.83,4.838,7.484,11.264,7.484,18.108
				C443.737,390.844,441.074,397.269,436.245,402.108z"/>
			<path d="M119.47,264.533v51.2c0,4.71,3.814,8.533,8.533,8.533c4.71,0,8.533-3.823,8.533-8.533v-51.2
				c0-4.71-3.823-8.533-8.533-8.533C123.285,256,119.47,259.823,119.47,264.533z"/>
			<path d="M392.537,315.733v-51.2c0-4.71-3.823-8.533-8.533-8.533c-4.719,0-8.533,3.823-8.533,8.533v51.2
				c0,4.71,3.814,8.533,8.533,8.533C388.714,324.267,392.537,320.444,392.537,315.733z"/>
		</g>
	</g>
</g>
</svg>